<svg xmlns="http://www.w3.org/2000/svg" xmlns:xlink="http://www.w3.org/1999/xlink" version="1.1" id="Livello_1" x="0px" y="0px" width="100px" height="100px" viewBox="0 0 100 100" enable-background="new 0 0 100 100" xml:space="preserve">
<g>
	<path d="M39.363,52.143c-0.99,4.212-2.863,7.882-7.456,6.802c-4.042-0.949-4.558-5.182-3.568-9.393   c0.99-4.212,5.127-6.072,6.964-5.641C37.221,44.362,40.353,47.932,39.363,52.143z"/>
	<path d="M58.462,52.143c0.99,4.212,2.862,7.882,7.456,6.802c4.042-0.949,4.558-5.182,3.568-9.393   c-0.99-4.212-5.128-6.072-6.965-5.641C60.604,44.362,57.473,47.932,58.462,52.143z"/>
	<path d="M55.821,59.422c-0.109-0.062-2.728-1.521-5.9-1.521c-3.167,0-6.192,1.453-6.32,1.516c-0.053,0.025-0.09,0.074-0.1,0.133   c-0.01,0.057,0.008,0.116,0.049,0.158c0.011,0.012,1.185,1.225,2.509,2.422c2.723,2.459,3.418,2.459,3.647,2.459   s0.925,0,3.648-2.459c1.324-1.197,2.497-2.41,2.509-2.422c0.039-0.041,0.058-0.098,0.05-0.153   C55.904,59.499,55.871,59.449,55.821,59.422z"/>
	<path d="M91.468,21.021c-4.914-6.587-15.436-7.054-23.549-1.067c-5.314-3.233-11.55-5.097-18.212-5.097   c-6.529,0-12.647,1.792-17.892,4.907c-8.075-5.784-18.421-5.259-23.283,1.257c-4.935,6.613-2.349,16.889,5.777,22.952   c0.229,0.171,0.459,0.334,0.691,0.494c-0.287,1.803-0.437,3.65-0.437,5.532c0,19.379,15.766,35.145,35.144,35.145   c19.378,0,35.144-15.766,35.144-35.145c0-1.759-0.132-3.488-0.383-5.18c0.413-0.267,0.822-0.547,1.224-0.847   C93.816,37.909,96.403,27.634,91.468,21.021z M15.33,26.449c2.368-3.174,6.791-4.102,11.033-2.695   c-4.458,3.97-7.902,9.055-9.889,14.813C13.4,34.779,12.792,29.85,15.33,26.449z M49.707,81.671   c-17.464,0-31.672-14.207-31.672-31.672c0-17.463,14.208-31.671,31.672-31.671c17.463,0,31.672,14.208,31.672,31.671   C81.379,67.464,67.17,81.671,49.707,81.671z M83.105,39.061c-1.935-5.889-5.384-11.097-9.888-15.158   c4.367-1.612,9.006-0.731,11.452,2.547C87.319,30,86.54,35.216,83.105,39.061z"/>
	<path d="M59.517,64.759c-0.4-0.053-0.764,0.232-0.815,0.633c-0.002,0.008-0.124,0.912-0.709,1.781   c-0.746,1.113-1.898,1.678-3.426,1.678c-3.643,0-4.117-3.318-4.134-3.457c-0.002-0.018-0.008-0.033-0.011-0.051   c-0.006-0.025-0.01-0.053-0.018-0.076c-0.008-0.025-0.018-0.047-0.027-0.07c-0.009-0.02-0.016-0.039-0.026-0.059   c-0.014-0.025-0.029-0.049-0.046-0.072c-0.011-0.014-0.02-0.029-0.031-0.043c-0.02-0.023-0.041-0.045-0.062-0.066   c-0.012-0.01-0.022-0.021-0.033-0.031c-0.026-0.021-0.055-0.041-0.083-0.059c-0.011-0.008-0.02-0.014-0.03-0.02   c-0.034-0.02-0.069-0.035-0.106-0.049c-0.007-0.002-0.014-0.006-0.021-0.008c-0.042-0.014-0.085-0.023-0.129-0.029   c-0.003,0-0.006-0.002-0.009-0.002c-0.002,0-0.003,0-0.003,0c-0.04-0.006-0.08-0.006-0.12-0.004c-0.012,0-0.023,0-0.034,0   c-0.007,0.002-0.015,0-0.022,0.002c-0.024,0.002-0.048,0.01-0.072,0.016c-0.017,0.004-0.034,0.006-0.05,0.012   c-0.029,0.008-0.057,0.02-0.085,0.033c-0.015,0.006-0.031,0.012-0.046,0.02c-0.027,0.016-0.052,0.031-0.076,0.049   c-0.014,0.01-0.028,0.02-0.041,0.029c-0.023,0.018-0.044,0.039-0.063,0.061c-0.013,0.012-0.025,0.025-0.037,0.039   c-0.019,0.021-0.034,0.045-0.05,0.068c-0.011,0.016-0.021,0.031-0.03,0.047c-0.014,0.025-0.024,0.053-0.035,0.08   c-0.007,0.016-0.015,0.033-0.021,0.051c-0.009,0.027-0.015,0.057-0.02,0.084c-0.004,0.016-0.009,0.029-0.011,0.047   c-0.002,0.008-0.124,0.912-0.709,1.781c-0.746,1.113-1.898,1.678-3.426,1.678c-3.644,0-4.117-3.318-4.134-3.457   c-0.048-0.4-0.413-0.686-0.813-0.637c-0.4,0.047-0.686,0.412-0.637,0.812c0.198,1.641,1.621,4.742,5.585,4.742   c2.566,0,4.066-1.299,4.859-2.662c0.794,1.363,2.293,2.662,4.86,2.662c3.964,0,5.387-3.102,5.585-4.742   C60.199,65.171,59.916,64.808,59.517,64.759z"/>
</g>
</svg>